<?xml version="1.0"?>
<!-- Generated by SVGo -->
<svg width="136.451mm" height="117.401mm"
     viewBox="0.000 0.000 136.451 117.401"
     xmlns="http://www.w3.org/2000/svg" 
     xmlns:xlink="http://www.w3.org/1999/xlink">
<polygon points="129.450,5.000 129.607,5.006 129.763,5.024 129.917,5.055 130.069,5.097 130.216,5.152 130.358,5.217 130.495,5.294 130.626,5.381 130.749,5.479 130.865,5.585 130.971,5.701 131.069,5.824 131.156,5.955 131.233,6.092 131.298,6.234 131.353,6.381 131.395,6.533 131.426,6.687 131.444,6.843 131.451,7.000 131.450,110.401 131.444,110.557 131.426,110.713 131.395,110.867 131.353,111.019 131.298,111.166 131.233,111.308 131.156,111.445 131.069,111.576 130.971,111.699 130.865,111.815 130.749,111.921 130.626,112.019 130.495,112.106 130.358,112.183 130.216,112.248 130.069,112.303 129.917,112.345 129.763,112.376 129.607,112.394 129.450,112.400 7.000,112.401 6.843,112.394 6.687,112.376 6.533,112.345 6.381,112.303 6.234,112.248 6.092,112.183 5.955,112.106 5.824,112.019 5.701,111.921 5.585,111.815 5.479,111.699 5.381,111.576 5.294,111.445 5.217,111.308 5.152,111.166 5.097,111.019 5.055,110.867 5.024,110.713 5.006,110.557 4.999,110.401 5.000,7.000 5.006,6.843 5.024,6.687 5.055,6.533 5.097,6.381 5.152,6.234 5.217,6.092 5.294,5.955 5.381,5.824 5.479,5.701 5.585,5.585 5.701,5.479 5.824,5.381 5.955,5.294 6.092,5.217 6.234,5.152 6.381,5.097 6.533,5.055 6.687,5.024 6.843,5.006 7.000,4.999" style="fill:none;stroke-width:0.2;stroke:blue"/>
<polygon points="128.074,108.398 127.802,108.537 127.587,108.752 127.448,109.024 127.400,109.326 127.448,109.627 127.587,109.899 127.802,110.114 128.074,110.253 128.375,110.301 128.676,110.253 128.949,110.114 129.163,109.899 129.303,109.627 129.350,109.326 129.303,109.024 129.163,108.752 128.949,108.537 128.676,108.398 128.375,108.351" style="fill:none;stroke-width:0.2;stroke:blue"/>
<polygon points="67.924,108.398 67.652,108.537 67.436,108.752 67.298,109.024 67.250,109.326 67.298,109.627 67.436,109.899 67.652,110.114 67.924,110.253 68.225,110.301 68.526,110.253 68.798,110.114 69.014,109.899 69.152,109.627 69.200,109.326 69.152,109.024 69.014,108.752 68.798,108.537 68.526,108.398 68.225,108.351" style="fill:none;stroke-width:0.2;stroke:blue"/>
<polygon points="7.773,108.398 7.501,108.537 7.286,108.752 7.147,109.024 7.100,109.326 7.147,109.627 7.286,109.899 7.501,110.114 7.773,110.253 8.074,110.301 8.376,110.253 8.648,110.114 8.863,109.899 9.002,109.627 9.050,109.326 9.002,109.024 8.863,108.752 8.648,108.537 8.376,108.398 8.074,108.351" style="fill:none;stroke-width:0.2;stroke:blue"/>
<polygon points="11.074,11.074 11.074,106.326 30.126,106.326 30.126,11.074" style="fill:none;stroke-width:0.2;stroke:blue"/>
<polygon points="49.174,11.074 49.174,87.274 49.173,87.274 49.173,106.326 125.375,106.326 125.375,11.074" style="fill:none;stroke-width:0.2;stroke:blue"/>
<polygon points="128.074,57.773 127.802,57.911 127.587,58.127 127.448,58.399 127.400,58.700 127.448,59.001 127.587,59.273 127.802,59.489 128.074,59.627 128.375,59.675 128.676,59.627 128.949,59.489 129.163,59.273 129.303,59.001 129.350,58.700 129.303,58.399 129.163,58.127 128.949,57.911 128.676,57.773 128.375,57.725" style="fill:none;stroke-width:0.2;stroke:blue"/>
<polygon points="7.773,57.773 7.501,57.911 7.286,58.127 7.147,58.399 7.100,58.700 7.147,59.001 7.286,59.273 7.501,59.489 7.773,59.627 8.074,59.675 8.376,59.627 8.648,59.489 8.863,59.273 9.002,59.001 9.050,58.700 9.002,58.399 8.863,58.127 8.648,57.911 8.376,57.773 8.074,57.725" style="fill:none;stroke-width:0.2;stroke:blue"/>
<polygon points="7.773,7.147 7.501,7.286 7.286,7.501 7.147,7.773 7.100,8.074 7.147,8.376 7.286,8.648 7.501,8.863 7.773,9.002 8.074,9.050 8.376,9.002 8.648,8.863 8.863,8.648 9.002,8.376 9.050,8.074 9.002,7.773 8.863,7.501 8.648,7.286 8.376,7.147 8.074,7.100" style="fill:none;stroke-width:0.2;stroke:blue"/>
<polygon points="67.924,7.147 67.652,7.286 67.436,7.501 67.298,7.773 67.250,8.074 67.298,8.376 67.436,8.648 67.652,8.863 67.924,9.002 68.225,9.049 68.526,9.002 68.798,8.863 69.014,8.648 69.152,8.376 69.200,8.074 69.152,7.773 69.014,7.501 68.798,7.286 68.526,7.147 68.225,7.100" style="fill:none;stroke-width:0.2;stroke:blue"/>
<polygon points="128.074,7.147 127.802,7.286 127.587,7.501 127.448,7.773 127.400,8.074 127.448,8.376 127.587,8.648 127.802,8.863 128.074,9.002 128.375,9.049 128.676,9.002 128.949,8.863 129.163,8.648 129.303,8.376 129.350,8.074 129.303,7.773 129.163,7.501 128.949,7.286 128.676,7.147 128.375,7.100" style="fill:none;stroke-width:0.2;stroke:blue"/>
</svg>
