<?xml version="1.0"?>
<!-- Generated by SVGo -->
<svg width="136.451mm" height="117.401mm"
     viewBox="0.000 0.000 136.451 117.401"
     xmlns="http://www.w3.org/2000/svg" 
     xmlns:xlink="http://www.w3.org/1999/xlink">
<polygon points="129.450,5.000 129.607,5.006 129.763,5.024 129.917,5.055 130.069,5.097 130.216,5.152 130.358,5.217 130.495,5.294 130.626,5.381 130.749,5.479 130.865,5.585 130.971,5.701 131.069,5.824 131.156,5.955 131.233,6.092 131.298,6.234 131.353,6.381 131.395,6.533 131.426,6.687 131.444,6.843 131.451,7.000 131.450,110.401 131.444,110.557 131.426,110.713 131.395,110.867 131.353,111.019 131.298,111.166 131.233,111.308 131.156,111.445 131.069,111.576 130.971,111.699 130.865,111.815 130.749,111.921 130.626,112.019 130.495,112.106 130.358,112.183 130.216,112.248 130.069,112.303 129.917,112.345 129.763,112.376 129.607,112.394 129.450,112.400 7.000,112.401 6.843,112.394 6.687,112.376 6.533,112.345 6.381,112.303 6.234,112.248 6.092,112.183 5.955,112.106 5.824,112.019 5.701,111.921 5.585,111.815 5.479,111.699 5.381,111.576 5.294,111.445 5.217,111.308 5.152,111.166 5.097,111.019 5.055,110.867 5.024,110.713 5.006,110.557 4.999,110.401 5.000,7.000 5.006,6.843 5.024,6.687 5.055,6.533 5.097,6.381 5.152,6.234 5.217,6.092 5.294,5.955 5.381,5.824 5.479,5.701 5.585,5.585 5.701,5.479 5.824,5.381 5.955,5.294 6.092,5.217 6.234,5.152 6.381,5.097 6.533,5.055 6.687,5.024 6.843,5.006 7.000,4.999" style="fill:none;stroke-width:0.2;stroke:blue"/>
<polygon points="128.074,108.398 127.802,108.537 127.587,108.752 127.448,109.024 127.400,109.326 127.448,109.627 127.587,109.899 127.802,110.114 128.074,110.253 128.375,110.301 128.676,110.253 128.949,110.114 129.163,109.899 129.303,109.627 129.350,109.326 129.303,109.024 129.163,108.752 128.949,108.537 128.676,108.398 128.375,108.351" style="fill:none;stroke-width:0.2;stroke:blue"/>
<polygon points="67.924,108.398 67.652,108.537 67.436,108.752 67.298,109.024 67.250,109.326 67.298,109.627 67.436,109.899 67.652,110.114 67.924,110.253 68.225,110.301 68.526,110.253 68.798,110.114 69.014,109.899 69.152,109.627 69.200,109.326 69.152,109.024 69.014,108.752 68.798,108.537 68.526,108.398 68.225,108.351" style="fill:none;stroke-width:0.2;stroke:blue"/>
<polygon points="7.773,108.398 7.501,108.537 7.286,108.752 7.147,109.024 7.100,109.326 7.147,109.627 7.286,109.899 7.501,110.114 7.773,110.253 8.074,110.301 8.376,110.253 8.648,110.114 8.863,109.899 9.002,109.627 9.050,109.326 9.002,109.024 8.863,108.752 8.648,108.537 8.376,108.398 8.074,108.351" style="fill:none;stroke-width:0.2;stroke:blue"/>
<polygon points="61.300,89.875 61.300,94.575 59.574,94.575 59.574,91.345 57.899,91.345 57.899,90.425 54.749,90.425 54.749,91.345 53.074,91.345 53.074,94.575 52.199,94.575 52.199,97.225 53.074,97.225 53.074,103.495 54.749,103.495 54.749,104.475 57.899,104.475 57.899,103.495 59.574,103.495 59.574,99.025 61.300,99.025 61.300,103.725 75.149,103.725 75.149,99.025 76.875,99.025 76.875,103.495 78.550,103.495 78.550,104.475 81.699,104.475 81.699,103.495 83.375,103.495 83.375,97.225 84.250,97.225 84.250,94.575 83.375,94.575 83.375,91.345 81.699,91.345 81.699,90.425 78.550,90.425 78.550,91.345 76.875,91.345 76.875,94.575 75.149,94.575 75.149,89.875" style="fill:none;stroke-width:0.2;stroke:blue"/>
<polygon points="13.675,89.875 13.675,103.725 27.525,103.725 27.525,89.875" style="fill:none;stroke-width:0.2;stroke:blue"/>
<polygon points="89.875,89.875 89.875,103.725 103.725,103.725 103.725,89.875" style="fill:none;stroke-width:0.2;stroke:blue"/>
<polygon points="115.425,71.250 115.425,72.125 109.155,72.125 109.155,73.800 108.175,73.800 108.175,76.950 109.155,76.950 109.155,78.625 113.625,78.625 113.625,80.350 108.925,80.350 108.925,94.200 113.625,94.200 113.625,95.925 109.155,95.925 109.155,97.600 108.175,97.600 108.175,100.750 109.155,100.750 109.155,102.425 115.425,102.425 115.425,103.300 118.074,103.300 118.074,102.425 121.304,102.425 121.304,100.750 122.225,100.750 122.225,97.600 121.304,97.600 121.304,95.925 118.074,95.925 118.074,94.200 122.774,94.200 122.774,80.350 118.074,80.350 118.074,78.625 121.304,78.625 121.304,76.950 122.225,76.950 122.225,73.800 121.304,73.800 121.304,72.125 118.074,72.125 118.074,71.250" style="fill:none;stroke-width:0.2;stroke:blue"/>
<polygon points="13.675,70.825 13.675,84.675 27.525,84.675 27.525,70.825" style="fill:none;stroke-width:0.2;stroke:blue"/>
<polygon points="51.775,70.825 51.775,84.675 65.625,84.675 65.625,70.825" style="fill:none;stroke-width:0.2;stroke:blue"/>
<polygon points="70.825,70.825 70.825,84.675 84.675,84.675 84.675,70.825" style="fill:none;stroke-width:0.2;stroke:blue"/>
<polygon points="89.875,70.825 89.875,84.675 103.725,84.675 103.725,70.825" style="fill:none;stroke-width:0.2;stroke:blue"/>
<polygon points="13.675,51.775 13.675,65.625 27.525,65.625 27.525,51.775" style="fill:none;stroke-width:0.2;stroke:blue"/>
<polygon points="51.775,51.775 51.775,65.625 65.625,65.625 65.625,51.775" style="fill:none;stroke-width:0.2;stroke:blue"/>
<polygon points="70.825,51.775 70.825,65.625 84.675,65.625 84.675,51.775" style="fill:none;stroke-width:0.2;stroke:blue"/>
<polygon points="89.875,51.775 89.875,65.625 103.725,65.625 103.725,51.775" style="fill:none;stroke-width:0.2;stroke:blue"/>
<polygon points="115.425,33.150 115.425,34.025 109.155,34.025 109.155,35.700 108.175,35.700 108.175,38.850 109.155,38.850 109.155,40.525 113.625,40.525 113.625,42.250 108.925,42.250 108.925,56.100 113.625,56.100 113.625,57.825 109.155,57.825 109.155,59.500 108.175,59.500 108.175,62.650 109.155,62.650 109.155,64.325 115.425,64.325 115.425,65.200 118.074,65.200 118.074,64.325 121.304,64.325 121.304,62.650 122.225,62.650 122.225,59.500 121.304,59.500 121.304,57.825 118.074,57.825 118.074,56.100 122.774,56.100 122.774,42.250 118.074,42.250 118.074,40.525 121.304,40.525 121.304,38.850 122.225,38.850 122.225,35.700 121.304,35.700 121.304,34.025 118.074,34.025 118.074,33.150" style="fill:none;stroke-width:0.2;stroke:blue"/>
<polygon points="128.074,57.773 127.802,57.911 127.587,58.127 127.448,58.399 127.400,58.700 127.448,59.001 127.587,59.273 127.802,59.489 128.074,59.627 128.375,59.675 128.676,59.627 128.949,59.489 129.163,59.273 129.303,59.001 129.350,58.700 129.303,58.399 129.163,58.127 128.949,57.911 128.676,57.773 128.375,57.725" style="fill:none;stroke-width:0.2;stroke:blue"/>
<polygon points="7.773,57.773 7.501,57.911 7.286,58.127 7.147,58.399 7.100,58.700 7.147,59.001 7.286,59.273 7.501,59.489 7.773,59.627 8.074,59.675 8.376,59.627 8.648,59.489 8.863,59.273 9.002,59.001 9.050,58.700 9.002,58.399 8.863,58.127 8.648,57.911 8.376,57.773 8.074,57.725" style="fill:none;stroke-width:0.2;stroke:blue"/>
<polygon points="13.675,32.725 13.675,46.575 27.525,46.575 27.525,32.725" style="fill:none;stroke-width:0.2;stroke:blue"/>
<polygon points="51.775,32.725 51.775,46.575 65.625,46.575 65.625,32.725" style="fill:none;stroke-width:0.2;stroke:blue"/>
<polygon points="70.825,32.725 70.825,46.575 84.675,46.575 84.675,32.725" style="fill:none;stroke-width:0.2;stroke:blue"/>
<polygon points="89.875,32.725 89.875,46.575 103.725,46.575 103.725,32.725" style="fill:none;stroke-width:0.2;stroke:blue"/>
<polygon points="13.675,13.675 13.675,27.525 27.525,27.525 27.525,13.675" style="fill:none;stroke-width:0.2;stroke:blue"/>
<polygon points="51.775,13.675 51.775,27.525 65.625,27.525 65.625,13.675" style="fill:none;stroke-width:0.2;stroke:blue"/>
<polygon points="70.825,13.675 70.825,27.525 84.675,27.525 84.675,13.675" style="fill:none;stroke-width:0.2;stroke:blue"/>
<polygon points="89.875,13.675 89.875,27.525 103.725,27.525 103.725,13.675" style="fill:none;stroke-width:0.2;stroke:blue"/>
<polygon points="108.925,13.675 108.925,27.525 122.774,27.525 122.774,13.675" style="fill:none;stroke-width:0.2;stroke:blue"/>
<polygon points="7.773,7.147 7.501,7.286 7.286,7.501 7.147,7.773 7.100,8.074 7.147,8.376 7.286,8.648 7.501,8.863 7.773,9.002 8.074,9.050 8.376,9.002 8.648,8.863 8.863,8.648 9.002,8.376 9.050,8.074 9.002,7.773 8.863,7.501 8.648,7.286 8.376,7.147 8.074,7.100" style="fill:none;stroke-width:0.2;stroke:blue"/>
<polygon points="67.924,7.147 67.652,7.286 67.436,7.501 67.298,7.773 67.250,8.074 67.298,8.376 67.436,8.648 67.652,8.863 67.924,9.002 68.225,9.049 68.526,9.002 68.798,8.863 69.014,8.648 69.152,8.376 69.200,8.074 69.152,7.773 69.014,7.501 68.798,7.286 68.526,7.147 68.225,7.100" style="fill:none;stroke-width:0.2;stroke:blue"/>
<polygon points="128.074,7.147 127.802,7.286 127.587,7.501 127.448,7.773 127.400,8.074 127.448,8.376 127.587,8.648 127.802,8.863 128.074,9.002 128.375,9.049 128.676,9.002 128.949,8.863 129.163,8.648 129.303,8.376 129.350,8.074 129.303,7.773 129.163,7.501 128.949,7.286 128.676,7.147 128.375,7.100" style="fill:none;stroke-width:0.2;stroke:blue"/>
</svg>
